<svg width="18" height="18" viewBox="0 0 18 18" fill="none" xmlns="http://www.w3.org/2000/svg">
<path d="M14 17.125H4C1.985 17.125 0.875 16.015 0.875 14V7.11002C0.875 6.20252 1.32585 5.36003 2.08085 4.85669L7.2666 1.40003C8.31993 0.698363 9.68006 0.698363 10.7334 1.40003L15.9191 4.85669C16.6741 5.36003 17.125 6.20252 17.125 7.11002V14C17.125 16.015 16.015 17.125 14 17.125ZM9 2.12419C8.6375 2.12419 8.27579 2.2292 7.95996 2.44003L2.77421 5.89669C2.36754 6.16753 2.125 6.62169 2.125 7.11002V14C2.125 15.3142 2.68583 15.875 4 15.875H14C15.3142 15.875 15.875 15.3142 15.875 14V7.11002C15.875 6.62169 15.6325 6.16753 15.2258 5.89669L10.04 2.44003C9.72421 2.2292 9.3625 2.12419 9 2.12419ZM9.71411 11.45L13.5341 8.67169C13.8133 8.46836 13.875 8.07752 13.6716 7.79836C13.4691 7.52002 13.0801 7.4567 12.7984 7.66086L8.97925 10.4384C8.92425 10.4784 8.85255 10.4784 8.79838 10.4392L4.97839 7.66086C4.69756 7.45753 4.30665 7.52002 4.10498 7.79836C3.90165 8.07752 3.96335 8.46836 4.24251 8.67169L8.0625 11.45C8.30917 11.6292 8.59833 11.7192 8.88749 11.7192C9.17749 11.7192 9.46744 11.63 9.71411 11.45Z" fill="#667085"/>
</svg>
