<svg width="18" height="18" viewBox="0 0 18 18" fill="none" xmlns="http://www.w3.org/2000/svg">
<path d="M16.6909 10.5566C15.5942 12.3866 13.1334 15.4583 9.00005 15.4583C8.19755 15.4583 7.40511 15.3366 6.64511 15.0958C6.31594 14.9916 6.13424 14.6408 6.23841 14.3117C6.34174 13.9817 6.69584 13.8017 7.02251 13.9042C7.66001 14.1058 8.32505 14.2083 9.00005 14.2083C12.5184 14.2083 14.6585 11.5166 15.6201 9.91164C15.9601 9.34831 15.9601 8.6508 15.6218 8.08913C15.3334 7.6033 14.9809 7.10661 14.6 6.64911C14.3792 6.38327 14.416 5.98918 14.6818 5.76918C14.9485 5.54835 15.3417 5.58495 15.5625 5.84995C15.9842 6.35745 16.3758 6.90995 16.6941 7.44745C17.2716 8.40328 17.2717 9.59658 16.6909 10.5566ZM7.38587 11.4984L1.94174 16.9425C1.82007 17.0642 1.66005 17.1258 1.50005 17.1258C1.34005 17.1258 1.18002 17.065 1.05836 16.9425C0.814191 16.6983 0.814191 16.3025 1.05836 16.0583L3.70423 13.4124C2.59757 12.4582 1.79342 11.3641 1.30758 10.555C0.729252 9.59662 0.729212 8.40336 1.30921 7.44419C2.40588 5.61419 4.86672 2.54246 9.00005 2.54246C10.5292 2.54246 11.9709 2.97491 13.2959 3.82074L16.0575 1.0591C16.3017 0.814935 16.6976 0.814935 16.9417 1.0591C17.1859 1.30327 17.1859 1.69913 16.9417 1.9433L7.3875 11.4975C7.3875 11.4975 7.38752 11.4984 7.38669 11.4984C7.38585 11.4984 7.38587 11.4975 7.38587 11.4984ZM7.00745 10.1092L10.1093 7.00738C9.77426 6.81822 9.39838 6.70913 9.00005 6.70913C7.73672 6.70913 6.7092 7.73663 6.7092 9.00079C6.7092 9.39829 6.81912 9.77419 7.00745 10.1092ZM4.58924 12.5266L6.09925 11.0166C5.68675 10.4307 5.4592 9.735 5.4592 8.99917C5.4592 7.04667 7.04755 5.4575 9.00005 5.4575C9.73672 5.4575 10.4316 5.68505 11.0175 6.09755L12.3767 4.7383C11.3226 4.1208 10.1934 3.79002 9.00005 3.79002C5.48172 3.79002 3.34164 6.48169 2.37997 8.08669C2.03997 8.65002 2.04001 9.34753 2.37834 9.9092C2.82584 10.6567 3.56924 11.6674 4.58924 12.5266ZM11.2567 9.36253C11.1067 10.3292 10.3284 11.1083 9.36341 11.2575C9.02258 11.31 8.78845 11.6291 8.84095 11.97C8.88928 12.2791 9.15511 12.4999 9.45761 12.4999C9.48928 12.4999 9.52177 12.4974 9.55343 12.4924C11.0759 12.2574 12.2567 11.0767 12.4917 9.55337C12.5442 9.2117 12.3109 8.8934 11.9692 8.84007C11.6359 8.78923 11.3092 9.02086 11.2567 9.36253Z" fill="#667085"/>
</svg>
