<svg width="14" height="18" viewBox="0 0 14 18" fill="none" xmlns="http://www.w3.org/2000/svg">
<path d="M10.9584 5.91996V4.83333C10.9584 2.65083 9.18258 0.875 7.00008 0.875C4.81758 0.875 3.04175 2.65083 3.04175 4.83333V5.91996C1.42675 6.13413 0.541748 7.205 0.541748 9V14C0.541748 16.015 1.65175 17.125 3.66675 17.125H10.3334C12.3484 17.125 13.4584 16.015 13.4584 14V9C13.4584 7.20583 12.5734 6.13496 10.9584 5.91996ZM7.00008 2.125C8.49342 2.125 9.70842 3.34 9.70842 4.83333V5.875H4.29175V4.83333C4.29175 3.34 5.50675 2.125 7.00008 2.125ZM12.2084 14C12.2084 15.3142 11.6476 15.875 10.3334 15.875H3.66675C2.35258 15.875 1.79175 15.3142 1.79175 14V9C1.79175 7.68583 2.35258 7.125 3.66675 7.125H10.3334C11.6476 7.125 12.2084 7.68583 12.2084 9V14ZM8.05843 10.6667C8.05843 11.01 7.88175 11.3001 7.62508 11.4892V13.1667C7.62508 13.5117 7.34508 13.7917 7.00008 13.7917C6.65508 13.7917 6.37508 13.5117 6.37508 13.1667V11.4683C6.13508 11.2774 5.97083 10.9958 5.97083 10.6667C5.97083 10.0917 6.43342 9.625 7.00842 9.625H7.01676C7.59176 9.625 8.05843 10.0917 8.05843 10.6667Z" fill="#667085"/>
</svg>
