<svg width="95" height="15" viewBox="0 0 95 15" fill="none" xmlns="http://www.w3.org/2000/svg">
<path d="M0.990767 14V0.909091H6.39844C7.37855 0.909091 8.22443 1.08594 8.93608 1.43963C9.65199 1.78906 10.2038 2.2919 10.5916 2.94815C10.9794 3.60014 11.1733 4.37358 11.1733 5.26847C11.1733 6.17614 10.9751 6.94744 10.5788 7.58239C10.1825 8.21307 9.62003 8.6946 8.89134 9.02699C8.16264 9.35511 7.29972 9.51918 6.30256 9.51918H2.88281V7.02628H5.71449C6.19176 7.02628 6.5902 6.96449 6.9098 6.84091C7.23367 6.71307 7.47869 6.52131 7.64489 6.26562C7.81108 6.00568 7.89418 5.6733 7.89418 5.26847C7.89418 4.86364 7.81108 4.52912 7.64489 4.26491C7.47869 3.99645 7.23367 3.79616 6.9098 3.66406C6.58594 3.5277 6.1875 3.45952 5.71449 3.45952H4.15483V14H0.990767ZM8.3608 8.01705L11.6207 14H8.16903L4.97301 8.01705H8.3608ZM17.3049 14.1854C16.2779 14.1854 15.3915 13.983 14.6458 13.5781C13.9043 13.169 13.3333 12.5874 12.9327 11.8331C12.5364 11.0746 12.3382 10.1733 12.3382 9.12926C12.3382 8.11506 12.5385 7.22869 12.9391 6.47017C13.3397 5.70739 13.9043 5.11506 14.633 4.69318C15.3617 4.26705 16.2203 4.05398 17.209 4.05398C17.9078 4.05398 18.5471 4.16264 19.1266 4.37997C19.7061 4.5973 20.2069 4.91903 20.6287 5.34517C21.0506 5.77131 21.3787 6.29759 21.6131 6.92401C21.8475 7.54616 21.9647 8.25994 21.9647 9.06534V9.84517H13.4313V8.02983H19.0563C19.052 7.69744 18.9732 7.40128 18.8198 7.14134C18.6664 6.88139 18.4554 6.67898 18.187 6.53409C17.9228 6.38494 17.6181 6.31037 17.2729 6.31037C16.9235 6.31037 16.6103 6.3892 16.3333 6.54688C16.0563 6.70028 15.8368 6.91122 15.6749 7.17969C15.513 7.44389 15.4277 7.74432 15.4192 8.08097V9.92827C15.4192 10.3288 15.498 10.6804 15.6557 10.983C15.8134 11.2812 16.0371 11.5135 16.3269 11.6797C16.6167 11.8459 16.9618 11.929 17.3624 11.929C17.6394 11.929 17.8908 11.8906 18.1167 11.8139C18.3425 11.7372 18.5364 11.6243 18.6983 11.4751C18.8603 11.326 18.9817 11.1428 19.0627 10.9254L21.9327 11.0085C21.8134 11.652 21.5513 12.2124 21.1465 12.6896C20.7459 13.1626 20.2196 13.5312 19.5676 13.7955C18.9157 14.0554 18.1614 14.1854 17.3049 14.1854ZM26.3288 14.1662C25.7024 14.1662 25.1463 14.0618 24.6605 13.853C24.179 13.6399 23.7976 13.3203 23.5163 12.8942C23.2393 12.4638 23.1009 11.9247 23.1009 11.277C23.1009 10.7315 23.1967 10.2713 23.3885 9.89631C23.5803 9.52131 23.8445 9.21662 24.1811 8.98224C24.5178 8.74787 24.9055 8.57102 25.3445 8.4517C25.7834 8.32812 26.2521 8.24503 26.7507 8.20241C27.3089 8.15128 27.7585 8.09801 28.0994 8.04261C28.4403 7.98295 28.6875 7.89986 28.8409 7.79332C28.9986 7.68253 29.0774 7.52699 29.0774 7.3267V7.29474C29.0774 6.96662 28.9645 6.71307 28.7386 6.53409C28.5128 6.35511 28.2081 6.26562 27.8246 6.26562C27.4112 6.26562 27.0788 6.35511 26.8274 6.53409C26.576 6.71307 26.4162 6.96023 26.348 7.27557L23.4652 7.1733C23.5504 6.5767 23.7699 6.04403 24.1236 5.57528C24.4815 5.10227 24.9716 4.73153 25.5938 4.46307C26.2202 4.19034 26.9723 4.05398 27.8501 4.05398C28.4766 4.05398 29.054 4.12855 29.5824 4.2777C30.1108 4.42258 30.571 4.63565 30.9631 4.9169C31.3551 5.19389 31.6577 5.5348 31.8707 5.93963C32.0881 6.34446 32.1967 6.80682 32.1967 7.3267V14H29.2564V12.6321H29.1797C29.005 12.9645 28.7813 13.2457 28.5085 13.4759C28.2401 13.706 27.9226 13.8786 27.5561 13.9936C27.1939 14.1087 26.7848 14.1662 26.3288 14.1662ZM27.294 12.1207C27.6307 12.1207 27.9332 12.0526 28.2017 11.9162C28.4744 11.7798 28.6918 11.5923 28.8537 11.3537C29.0156 11.1108 29.0966 10.8295 29.0966 10.5099V9.5767C29.0071 9.62358 28.8984 9.66619 28.7706 9.70455C28.647 9.7429 28.5107 9.77912 28.3615 9.81321C28.2124 9.8473 28.0589 9.87713 27.9013 9.9027C27.7436 9.92827 27.5923 9.9517 27.4474 9.97301C27.1534 10.0199 26.902 10.0923 26.6932 10.1903C26.4886 10.2884 26.331 10.4162 26.2202 10.5739C26.1136 10.7273 26.0604 10.9105 26.0604 11.1236C26.0604 11.4474 26.1754 11.6946 26.4055 11.8651C26.6399 12.0355 26.9361 12.1207 27.294 12.1207ZM37.2337 0.909091V14H34.108V0.909091H37.2337Z" fill="#999FA9"/>
<path d="M39.2232 14V0.909091H48.351V3.47869H42.3873V6.16335H47.8844V8.73935H42.3873V11.4304H48.351V14H39.2232ZM58.9043 7.17969L56.0343 7.25639C56.0044 7.05185 55.9235 6.87074 55.7914 6.71307C55.6593 6.55114 55.4867 6.42543 55.2736 6.33594C55.0648 6.24219 54.8219 6.19531 54.5449 6.19531C54.1827 6.19531 53.8738 6.26776 53.6181 6.41264C53.3667 6.55753 53.2431 6.75355 53.2473 7.00071C53.2431 7.19247 53.3198 7.35866 53.4775 7.49929C53.6394 7.63991 53.927 7.75284 54.3404 7.83807L56.2324 8.19602C57.2125 8.38352 57.9412 8.6946 58.4185 9.12926C58.9 9.56392 59.1429 10.1392 59.1472 10.8551C59.1429 11.5284 58.9426 12.1143 58.5463 12.6129C58.1543 13.1115 57.6174 13.4993 56.9355 13.7763C56.2537 14.049 55.4739 14.1854 54.5961 14.1854C53.1941 14.1854 52.0882 13.8977 51.2786 13.3224C50.4732 12.7429 50.013 11.9673 49.8979 10.9957L52.9853 10.919C53.0534 11.277 53.2303 11.5497 53.5158 11.7372C53.8013 11.9247 54.1657 12.0185 54.6088 12.0185C55.0094 12.0185 55.3354 11.9439 55.5868 11.7947C55.8382 11.6456 55.9661 11.4474 55.9703 11.2003C55.9661 10.9787 55.8681 10.8018 55.6763 10.6697C55.4846 10.5334 55.1841 10.4268 54.775 10.3501L53.062 10.0241C52.0776 9.84517 51.3446 9.51491 50.8631 9.03338C50.3816 8.54759 50.1429 7.92969 50.1472 7.17969C50.1429 6.52344 50.3176 5.96307 50.6713 5.49858C51.025 5.02983 51.5279 4.67188 52.1799 4.42472C52.8319 4.17756 53.601 4.05398 54.4874 4.05398C55.8169 4.05398 56.8652 4.3331 57.6323 4.89134C58.3993 5.44531 58.8233 6.2081 58.9043 7.17969ZM66.228 4.18182V6.48295H60.0341V4.18182H66.228ZM61.3317 1.82955H64.4574V10.9126C64.4574 11.1044 64.4872 11.2599 64.5469 11.3793C64.6108 11.4943 64.7024 11.5774 64.8217 11.6286C64.9411 11.6754 65.0838 11.6989 65.25 11.6989C65.3693 11.6989 65.495 11.6882 65.6271 11.6669C65.7635 11.6413 65.8658 11.62 65.9339 11.603L66.407 13.8594C66.2578 13.902 66.0469 13.9553 65.7741 14.0192C65.5057 14.0831 65.1839 14.1236 64.8089 14.1406C64.076 14.1747 63.4474 14.0895 62.9233 13.8849C62.4034 13.6761 62.005 13.3523 61.728 12.9134C61.4553 12.4744 61.3232 11.9226 61.3317 11.2578V1.82955ZM70.5906 14.1662C69.9641 14.1662 69.408 14.0618 68.9222 13.853C68.4407 13.6399 68.0593 13.3203 67.7781 12.8942C67.5011 12.4638 67.3626 11.9247 67.3626 11.277C67.3626 10.7315 67.4585 10.2713 67.6502 9.89631C67.842 9.52131 68.1062 9.21662 68.4428 8.98224C68.7795 8.74787 69.1673 8.57102 69.6062 8.4517C70.0451 8.32812 70.5138 8.24503 71.0124 8.20241C71.5707 8.15128 72.0202 8.09801 72.3612 8.04261C72.7021 7.98295 72.9492 7.89986 73.1026 7.79332C73.2603 7.68253 73.3391 7.52699 73.3391 7.3267V7.29474C73.3391 6.96662 73.2262 6.71307 73.0004 6.53409C72.7745 6.35511 72.4698 6.26562 72.0863 6.26562C71.6729 6.26562 71.3406 6.35511 71.0891 6.53409C70.8377 6.71307 70.6779 6.96023 70.6097 7.27557L67.7269 7.1733C67.8121 6.5767 68.0316 6.04403 68.3853 5.57528C68.7433 5.10227 69.2333 4.73153 69.8555 4.46307C70.4819 4.19034 71.234 4.05398 72.1119 4.05398C72.7383 4.05398 73.3157 4.12855 73.8441 4.2777C74.3725 4.42258 74.8327 4.63565 75.2248 4.9169C75.6168 5.19389 75.9194 5.5348 76.1325 5.93963C76.3498 6.34446 76.4585 6.80682 76.4585 7.3267V14H73.5181V12.6321H73.4414C73.2667 12.9645 73.043 13.2457 72.7702 13.4759C72.5018 13.706 72.1843 13.8786 71.8178 13.9936C71.4556 14.1087 71.0465 14.1662 70.5906 14.1662ZM71.5558 12.1207C71.8924 12.1207 72.195 12.0526 72.4634 11.9162C72.7362 11.7798 72.9535 11.5923 73.1154 11.3537C73.2773 11.1108 73.3583 10.8295 73.3583 10.5099V9.5767C73.2688 9.62358 73.1602 9.66619 73.0323 9.70455C72.9087 9.7429 72.7724 9.77912 72.6232 9.81321C72.4741 9.8473 72.3207 9.87713 72.163 9.9027C72.0053 9.92827 71.854 9.9517 71.7092 9.97301C71.4151 10.0199 71.1637 10.0923 70.9549 10.1903C70.7504 10.2884 70.5927 10.4162 70.4819 10.5739C70.3754 10.7273 70.3221 10.9105 70.3221 11.1236C70.3221 11.4474 70.4371 11.6946 70.6673 11.8651C70.9016 12.0355 71.1978 12.1207 71.5558 12.1207ZM83.9116 4.18182V6.48295H77.7177V4.18182H83.9116ZM79.0153 1.82955H82.141V10.9126C82.141 11.1044 82.1708 11.2599 82.2305 11.3793C82.2944 11.4943 82.386 11.5774 82.5053 11.6286C82.6246 11.6754 82.7674 11.6989 82.9336 11.6989C83.0529 11.6989 83.1786 11.6882 83.3107 11.6669C83.4471 11.6413 83.5494 11.62 83.6175 11.603L84.0906 13.8594C83.9414 13.902 83.7305 13.9553 83.4577 14.0192C83.1893 14.0831 82.8675 14.1236 82.4925 14.1406C81.7596 14.1747 81.131 14.0895 80.6069 13.8849C80.087 13.6761 79.6886 13.3523 79.4116 12.9134C79.1388 12.4744 79.0067 11.9226 79.0153 11.2578V1.82955ZM89.9904 14.1854C88.9634 14.1854 88.0771 13.983 87.3313 13.5781C86.5898 13.169 86.0188 12.5874 85.6183 11.8331C85.2219 11.0746 85.0238 10.1733 85.0238 9.12926C85.0238 8.11506 85.2241 7.22869 85.6246 6.47017C86.0252 5.70739 86.5898 5.11506 87.3185 4.69318C88.0472 4.26705 88.9059 4.05398 89.8945 4.05398C90.5934 4.05398 91.2326 4.16264 91.8121 4.37997C92.3917 4.5973 92.8924 4.91903 93.3143 5.34517C93.7362 5.77131 94.0643 6.29759 94.2987 6.92401C94.533 7.54616 94.6502 8.25994 94.6502 9.06534V9.84517H86.1168V8.02983H91.7418C91.7376 7.69744 91.6587 7.40128 91.5053 7.14134C91.3519 6.88139 91.141 6.67898 90.8725 6.53409C90.6083 6.38494 90.3036 6.31037 89.9585 6.31037C89.609 6.31037 89.2958 6.3892 89.0188 6.54688C88.7418 6.70028 88.5224 6.91122 88.3604 7.17969C88.1985 7.44389 88.1133 7.74432 88.1048 8.08097V9.92827C88.1048 10.3288 88.1836 10.6804 88.3413 10.983C88.4989 11.2812 88.7227 11.5135 89.0124 11.6797C89.3022 11.8459 89.6474 11.929 90.0479 11.929C90.3249 11.929 90.5763 11.8906 90.8022 11.8139C91.0281 11.7372 91.2219 11.6243 91.3839 11.4751C91.5458 11.326 91.6673 11.1428 91.7482 10.9254L94.6183 11.0085C94.4989 11.652 94.2369 12.2124 93.832 12.6896C93.4315 13.1626 92.9052 13.5312 92.2532 13.7955C91.6012 14.0554 90.8469 14.1854 89.9904 14.1854Z" fill="#1570EF"/>
</svg>
