<svg width="14" height="18" viewBox="0 0 14 18" fill="none" xmlns="http://www.w3.org/2000/svg">
<path d="M7.00761 7.95833C5.05428 7.95833 3.46594 6.36917 3.46594 4.41667C3.46594 2.46417 5.05428 0.875 7.00761 0.875C8.96094 0.875 10.5493 2.46417 10.5493 4.41667C10.5493 6.36917 8.96094 7.95833 7.00761 7.95833ZM7.00761 2.125C5.74344 2.125 4.71594 3.1525 4.71594 4.41667C4.71594 5.68083 5.74344 6.70833 7.00761 6.70833C8.27178 6.70833 9.29928 5.68083 9.29928 4.41667C9.29928 3.1525 8.27094 2.125 7.00761 2.125ZM10.3309 17.125H3.66929C1.65262 17.125 0.541748 16.0209 0.541748 14.0159C0.541748 11.7984 1.79675 9.20833 5.33341 9.20833H8.66675C12.2034 9.20833 13.4584 11.7975 13.4584 14.0159C13.4584 16.0209 12.3475 17.125 10.3309 17.125ZM5.33341 10.4583C2.04758 10.4583 1.79175 13.1809 1.79175 14.0159C1.79175 15.3192 2.35346 15.875 3.66929 15.875H10.3309C11.6467 15.875 12.2084 15.3192 12.2084 14.0159C12.2084 13.1817 11.9526 10.4583 8.66675 10.4583H5.33341Z" fill="#667085"/>
</svg>
