<svg width="1920" height="268" viewBox="0 0 1920 268" fill="none" xmlns="http://www.w3.org/2000/svg">
<mask id="mask0_7144_2223" style="mask-type:alpha" maskUnits="userSpaceOnUse" x="0" y="-1" width="1920" height="269">
<path d="M1920 -0.000732422H0V267.999H1920V-0.000732422Z" fill="#FFEDED"/>
</mask>
<g mask="url(#mask0_7144_2223)">
<g opacity="0.28">
<path d="M1920 0H0V268H1920V0Z" fill="#DAFF8B"/>
<path opacity="0.7" d="M1765.2 6.66492C1765.2 6.66492 1768.09 70.1386 1797.31 89.1992C1840.03 117.066 1913.34 92.5517 1927.48 89.2151C1941.61 85.8784 1944.27 84.5361 1944.27 84.5361L1922.82 7.88955C1922.82 7.88955 1851.32 27.3191 1839.04 28.9161C1826.75 30.513 1765.2 6.66492 1765.2 6.66492Z" fill="white"/>
<path opacity="0.5" d="M-19.866 52.9486C-19.866 52.9486 24.0845 72.119 53.8294 39.951C83.5744 7.78292 94.8722 12.9225 133.871 19.1474C172.869 25.3722 193.861 33.755 207.831 -12.4696L11.7413 -65.0117L-19.866 52.9486Z" fill="#09BA9C"/>
<path opacity="0.28" d="M194.985 0.572684C195.903 1.34144 189.62 9.41407 178.025 13.9537C160.396 20.8555 139.513 16.0578 139.433 15.1522C139.372 14.4578 151.571 16.3536 167.416 12.4111C184.992 8.03823 193.984 -0.265104 194.985 0.572684Z" fill="#F1F0DC"/>
<path opacity="0.28" d="M78.5755 38.5726C78.9342 33.7048 82.18 29.5228 86.6855 27.6467C92.386 25.2732 101.734 23.3677 111.155 30.01C126.258 40.6585 119.219 47.2224 112.508 52.5544C105.798 57.8864 80.5486 54.5533 78.9174 44.8738C78.5091 42.4537 78.444 40.3569 78.5755 38.5726Z" fill="#09BA9C"/>
<path opacity="0.28" d="M129.918 64.3489C136.119 66.0102 142.189 63.4596 143.477 58.6518C144.766 53.8441 140.784 48.5999 134.583 46.9385C128.383 45.2772 122.313 47.8279 121.025 52.6356C119.736 57.4434 123.718 62.6876 129.918 64.3489Z" fill="#09BA9C"/>
<path opacity="0.28" d="M120.127 88.8359C126.327 90.4972 132.398 87.9465 133.686 83.1388C134.974 78.331 130.992 73.0868 124.792 71.4255C118.592 69.7641 112.521 72.3148 111.233 77.1226C109.945 81.9303 113.927 87.1745 120.127 88.8359Z" fill="#09BA9C"/>
<path opacity="0.28" d="M1574.51 -47.2046C1574.51 -47.2046 1558.03 -2.52695 1579.54 19.5005C1620.2 61.1504 1702.37 -19.0715 1749.2 -0.577726C1796.04 17.9161 1797.63 40.9737 1860.22 24.4324C1922.82 7.89115 1922.82 7.89115 1922.82 7.89115L1883.46 -133.313C1830.73 -118.617 1778.01 -103.922 1725.28 -89.226C1675.02 -75.2191 1624.76 -61.2123 1574.51 -47.2046Z" fill="#3A887B"/>
<path opacity="0.28" d="M1762.16 -23.9375C1785.14 -11.0635 1833.9 11.4841 1881.09 -5.86275C1884.8 -7.22679 1888.57 -8.86129 1892.37 -10.813" fill="#3A887B"/>
<path opacity="0.28" d="M1774.77 -13.2899C1773.93 -11.3924 1793.31 3.51937 1820.61 10.0916C1867.41 21.3587 1910.8 1.69119 1910.44 -0.0301349C1910.18 -1.25142 1888.07 7.35771 1853.23 5.51868C1807.2 3.08945 1775.81 -15.6348 1774.77 -13.2899Z" fill="#F1F0DC"/>
</g>
</g>
</svg>
